 <svg version="1.0" xmlns="http://www.w3.org/2000/svg" width="700.000000pt" height="700.000000pt" viewBox="0 0 700.000000 700.000000" preserveAspectRatio="xMidYMid meet">
<metadata>
Created by potrace 1.12, written by Peter Selinger 2001-2015
</metadata>
<g transform="translate(0.000000,700.000000) scale(0.100000,-0.100000)" fill="#000000" stroke="none">
<path d="M0 3500 l0 -3500 3500 0 3500 0 0 3500 0 3500 -3500 0 -3500 0 0
-3500z m5635 3285 c82 -22 213 -85 313 -152 87 -57 238 -198 262 -243 7 -13
-16 5 -51 40 -152 154 -393 304 -538 335 -19 4 -48 13 -65 21 -30 13 -30 13
-6 14 14 0 52 -7 85 -15z m5 -201 c0 -13 -8 -25 -19 -29 -10 -3 -21 -14 -24
-25 -4 -14 -1 -17 12 -13 14 6 13 3 -2 -14 -14 -16 -17 -30 -11 -57 l6 -37 44
7 c43 6 45 5 55 -25 14 -40 25 -32 44 31 25 84 38 98 93 97 52 -1 77 -7 107
-27 17 -11 17 -14 5 -19 -34 -14 -130 -117 -130 -140 0 -16 -6 -23 -18 -23
-11 0 -26 -8 -34 -17 -17 -20 -32 -93 -19 -93 11 0 36 31 44 53 7 20 37 23 37
4 0 -7 -14 -26 -31 -43 -17 -16 -37 -44 -44 -62 -8 -18 -25 -36 -40 -42 -25
-9 -36 -42 -13 -37 7 1 14 -9 16 -23 2 -13 11 -29 19 -35 8 -6 13 -17 11 -25
-2 -10 16 -21 56 -34 l59 -19 -29 -24 c-16 -12 -33 -23 -39 -23 -17 -1 -63
-46 -67 -66 -2 -11 -6 -17 -9 -14 -2 3 -17 -3 -32 -13 -15 -10 -32 -15 -37
-12 -11 7 -71 -28 -147 -88 -89 -69 -78 -41 12 34 41 34 75 65 75 70 0 15 -39
20 -62 8 -36 -18 -88 -71 -88 -89 0 -18 -28 -46 -72 -73 -19 -12 -26 -23 -22
-35 5 -14 4 -14 -5 -2 -8 12 -37 -12 -153 -127 -123 -121 -149 -142 -183 -148
-92 -15 -164 -63 -310 -204 -33 -32 -68 -61 -77 -64 -10 -4 -26 -19 -36 -35
-9 -16 -188 -198 -397 -405 -226 -222 -389 -391 -400 -413 -11 -22 -26 -47
-34 -57 -8 -9 -12 -19 -9 -22 3 -3 16 11 30 30 13 19 211 224 439 455 450 456
425 436 484 379 l30 -30 -92 -85 c-51 -47 -93 -92 -93 -100 0 -8 -5 -14 -12
-14 -7 0 -181 -170 -387 -377 -206 -208 -372 -373 -368 -366 5 7 1 9 -12 6
-13 -3 -18 -10 -14 -20 4 -11 -42 -62 -153 -169 -87 -84 -153 -153 -145 -154
7 0 74 59 150 132 l136 132 -110 -114 c-305 -318 -1097 -1106 -1143 -1137 -29
-20 -121 -102 -205 -182 -84 -81 -199 -189 -257 -241 -131 -116 -653 -628
-667 -655 -11 -19 -12 -19 -32 -1 -12 11 -21 25 -21 32 0 7 367 379 816 826
475 473 831 835 851 865 24 39 38 51 51 47 12 -4 13 -3 4 3 -9 7 49 69 220
234 127 123 278 270 333 326 56 57 107 103 113 103 13 0 36 39 28 47 -5 6 -97
-71 -173 -144 -42 -41 -61 -54 -48 -33 9 14 0 13 -50 -11 -64 -30 -105 -20
-165 40 -39 39 -50 57 -55 94 -6 40 -2 57 39 146 25 55 46 107 46 115 0 19 21
66 30 66 15 0 18 -13 8 -43 -5 -18 -11 -41 -12 -52 -2 -11 -13 -36 -25 -55
-65 -106 -75 -163 -42 -228 23 -44 66 -72 114 -72 45 0 97 37 227 165 58 57
131 125 162 152 77 64 631 677 881 973 16 19 53 62 83 95 106 120 327 403 413
530 102 151 121 186 166 308 l32 90 7 -43 c8 -51 33 -103 46 -95 30 19 40 206
16 308 -7 32 -11 56 -9 53 8 -7 63 60 63 77 0 22 20 32 31 16 6 -10 9 -6 9 15
0 23 3 26 14 17 11 -9 15 -7 19 8 3 14 15 21 38 23 41 4 59 -7 59 -38z m208
-16 c19 -19 15 -26 -19 -33 -37 -8 -44 -3 -29 24 12 24 30 27 48 9z m262 -167
c0 22 13 0 31 -53 l17 -52 -29 34 c-16 19 -34 42 -41 50 -7 8 -22 26 -33 40
-20 25 -19 25 18 -3 20 -16 37 -23 37 -16z m-740 -819 c0 -4 -52 -59 -115
-122 -63 -63 -115 -118 -115 -122 0 -5 8 -8 18 -8 75 -1 310 -198 410 -345 15
-22 42 -60 61 -85 57 -75 71 -118 75 -231 3 -73 1 -110 -9 -128 -7 -14 -15
-44 -19 -66 -3 -22 -5 -41 -6 -42 -1 -9 -74 -83 -81 -83 -5 0 -41 -33 -81 -72
-55 -56 -73 -69 -76 -55 -2 9 -9 17 -16 17 -22 0 -27 -13 -12 -29 13 -15 5
-26 -74 -107 -81 -82 -93 -90 -122 -87 -29 3 -30 2 -10 -7 12 -5 22 -15 22
-21 0 -7 -81 -94 -179 -193 -99 -100 -214 -221 -258 -270 -96 -110 -268 -297
-472 -513 -85 -90 -152 -166 -149 -169 3 -2 11 2 18 11 7 8 17 15 23 15 6 0
-2 -13 -18 -30 -26 -27 -53 -42 -42 -22 3 4 -11 8 -30 8 -19 1 -39 8 -44 15
-5 8 -9 9 -9 3 0 -6 11 -21 25 -34 15 -14 25 -33 23 -45 -4 -21 -8 -22 -44
-11 -16 5 -35 -4 -70 -31 -27 -20 -58 -37 -68 -38 -23 -2 -29 -14 -16 -35 7
-12 12 -12 29 5 33 29 35 10 3 -26 l-29 -33 -17 32 c-21 40 -20 55 4 83 17 21
19 22 20 6 0 -12 6 -17 18 -15 12 2 17 13 17 35 1 21 10 42 28 61 15 16 24 31
21 35 -4 4 5 11 19 16 14 6 31 20 37 32 8 15 9 19 1 15 -6 -4 -11 -2 -11 3 0
6 9 11 20 11 16 0 43 31 45 50 1 17 91 110 106 110 10 0 23 9 29 20 6 11 8 20
5 20 -4 0 15 25 40 55 26 30 52 55 58 55 6 0 -13 -26 -43 -57 -39 -42 -34 -38
18 13 40 39 74 77 75 85 4 22 47 79 60 79 6 0 -5 -17 -23 -37 -19 -21 -2 -7
38 32 39 38 72 74 72 79 0 5 -10 1 -22 -10 -12 -10 2 9 32 44 29 34 56 60 58
57 3 -3 -12 -24 -34 -48 -21 -23 -2 -6 44 38 45 44 82 84 82 89 0 5 -10 1 -22
-10 -13 -11 -10 -5 6 13 16 18 32 30 36 28 10 -6 143 132 136 143 -3 5 35 54
85 108 85 93 122 125 105 93 -4 -8 3 -2 16 12 13 14 33 29 43 33 20 7 20 7 0
18 -30 16 -30 17 -10 32 17 12 1 31 -190 242 -115 126 -217 239 -228 252 -11
12 -16 22 -10 22 6 0 68 -64 138 -142 71 -79 173 -187 227 -240 86 -85 98
-100 92 -123 -3 -14 -4 -25 -2 -25 2 0 20 16 39 36 31 33 32 36 10 29 -16 -5
0 15 49 61 40 38 75 70 79 70 32 7 49 18 45 29 -3 7 4 16 15 20 12 3 21 12 21
19 0 7 26 37 57 67 31 30 55 54 53 54 -3 0 5 14 18 30 13 17 20 24 16 16 -4
-9 -3 -12 4 -7 6 4 9 12 6 19 -2 7 2 21 11 32 15 20 15 20 9 0 -6 -19 -5 -19
10 1 23 32 38 178 20 212 -15 29 -10 44 11 35 19 -7 19 1 -1 40 -55 108 -161
232 -281 328 -79 64 -121 80 -211 84 -68 3 -116 15 -61 15 35 0 69 11 69 22 0
14 -70 -2 -110 -24 -19 -11 -49 -39 -66 -62 -18 -25 -37 -40 -47 -38 -10 2
-20 -5 -24 -15 -7 -19 -63 -76 -63 -65 0 4 -9 -8 -20 -25 -11 -18 -26 -33 -34
-33 -19 0 -106 52 -106 63 0 11 111 127 122 127 4 0 26 18 48 40 51 51 121 86
201 100 64 11 64 12 199 140 128 122 150 140 150 122z m320 -52 c13 -9 13 -10
0 -10 -8 0 -22 5 -30 10 -13 9 -13 10 0 10 8 0 22 -5 30 -10z m-786 -603 c21
-26 27 -40 19 -48 -7 -7 -20 2 -42 29 -32 41 -40 67 -19 60 6 -2 25 -21 42
-41z m227 -278 c105 -117 171 -183 180 -180 11 3 12 2 1 -11 -11 -13 -21 -6
-80 56 -37 39 -106 114 -152 166 -46 52 -98 110 -114 129 -17 18 -24 32 -16
29 8 -2 90 -88 181 -189z m811 94 c23 -21 23 -59 1 -71 -13 -7 -28 -4 -49 7
-25 14 -30 21 -23 38 7 18 33 42 48 43 3 0 13 -7 23 -17z m-109 -15 c-4 -7 -8
-20 -8 -28 0 -10 -12 -16 -40 -17 -54 -3 -64 2 -58 27 3 12 9 17 12 12 11 -18
49 -24 58 -9 7 12 22 21 41 26 2 1 0 -5 -5 -11z m-1173 -115 c0 -22 -14 -15
-54 26 -52 53 -38 77 15 25 22 -21 39 -44 39 -51z m15 -23 c-3 -5 -12 -10 -18
-10 -7 0 -6 4 3 10 19 12 23 12 15 0z m1179 -52 c6 -48 4 -58 -9 -58 -12 0
-15 12 -15 53 0 46 7 74 16 65 1 -2 5 -29 8 -60z m-97 -104 c-9 -9 -28 6 -21
18 4 6 10 6 17 -1 6 -6 8 -13 4 -17z m-397 -19 c35 -37 58 -43 78 -23 7 7 12
9 12 5 0 -4 -19 -26 -42 -49 -23 -24 -38 -37 -34 -30 4 6 3 12 -3 12 -6 0 -8
6 -5 14 3 8 -8 30 -25 49 -54 60 -37 80 19 22z m-185 -145 c-3 -5 2 -10 12
-10 11 0 28 -6 38 -14 17 -12 10 -13 -56 -10 -40 1 -64 1 -51 -2 29 -7 28 -18
-5 -39 -26 -17 -27 -17 -45 6 -15 18 -21 20 -28 10 -6 -11 -10 -9 -19 8 -10
18 -8 23 21 41 35 21 145 30 133 10z m-334 -228 c-152 -161 -179 -187 -186
-180 -9 9 295 329 306 322 5 -3 -48 -67 -120 -142z m155 83 c18 -34 18 -34 -4
-58 -17 -18 -34 -24 -62 -24 -22 0 -55 -10 -77 -23 -35 -21 -34 -18 20 35 31
31 57 59 57 63 0 8 32 42 40 42 4 0 15 -16 26 -35z m-119 -144 c13 -21 9 -27
-322 -376 -93 -99 -240 -254 -325 -345 -85 -91 -184 -196 -220 -235 -36 -38
-68 -70 -72 -71 -5 -1 -15 -2 -23 -3 -9 -1 -12 -7 -8 -17 4 -12 0 -14 -23 -8
-31 7 -78 44 -56 44 8 0 10 5 6 12 -5 7 -2 9 9 5 9 -3 21 1 29 10 10 13 10 17
1 20 -7 3 -13 9 -13 15 0 13 281 291 287 284 2 -2 -33 -44 -78 -92 -46 -49
-106 -114 -133 -144 l-51 -54 60 54 c33 30 71 69 85 85 13 17 62 70 108 119
49 53 78 92 72 96 -7 5 -6 11 5 20 8 7 24 33 35 57 11 24 23 42 28 39 4 -3 79
69 165 159 86 91 157 162 157 159 0 -16 -57 -83 -193 -227 -82 -87 -147 -160
-145 -163 3 -2 93 89 201 203 263 280 360 372 392 373 6 0 16 -9 22 -19z
m-2059 -59 c9 -6 -1 -22 -39 -57 -40 -37 -53 -45 -60 -34 -6 10 4 27 33 56 45
46 46 47 66 35z m60 -4 c8 -10 4 -13 -14 -14 -20 -2 -23 1 -13 12 14 17 14 17
27 2z m1762 -93 c-7 -9 -15 -13 -18 -10 -3 2 1 11 8 20 7 9 15 13 18 10 3 -2
-1 -11 -8 -20z m-1725 -84 c43 -44 83 -77 89 -73 6 3 4 -5 -5 -18 -9 -13 -20
-25 -25 -27 -14 -5 -131 112 -150 148 -14 28 -12 49 4 49 4 0 43 -36 87 -79z
m-195 29 c-8 -5 -17 -7 -19 -4 -3 3 1 9 9 14 8 5 17 7 19 4 3 -3 -1 -9 -9 -14z
m1260 -44 c0 -2 -13 -9 -30 -15 -35 -12 -41 -5 -7 9 25 10 37 12 37 6z m850
-10 c0 -3 -4 -8 -10 -11 -5 -3 -10 -1 -10 4 0 6 5 11 10 11 6 0 10 -2 10 -4z
m-1677 -20 c4 -9 -5 -21 -19 -31 -14 -9 -33 -24 -42 -33 -37 -37 -110 -92
-121 -92 -26 0 -2 53 44 100 35 36 57 50 77 50 15 0 30 5 33 10 9 14 22 12 28
-4z m757 1 c0 -2 -10 -12 -22 -23 l-23 -19 19 23 c18 21 26 27 26 19z m-1303
-54 c4 -12 -22 -18 -56 -13 -7 1 -31 -15 -51 -35 -52 -51 -69 -35 -20 18 34
37 45 42 81 42 25 0 44 -5 46 -12z m553 -18 c0 -9 -38 -78 -55 -99 -8 -11 -18
-17 -21 -13 -4 4 -13 2 -19 -3 -9 -8 -15 -5 -19 7 -5 13 6 31 43 65 44 43 71
59 71 43z m689 -32 c-15 -56 -20 -63 -13 -18 6 39 11 55 19 55 2 0 -1 -17 -6
-37z m355 -43 c3 -19 2 -50 -3 -67 -6 -21 -6 -35 0 -39 14 -8 -6 -30 -44 -49
l-31 -15 21 22 c40 42 56 125 38 190 -4 16 -3 19 3 8 5 -8 12 -31 16 -50z
m946 0 c0 -5 -4 -10 -9 -10 -6 0 -13 5 -16 10 -3 6 1 10 9 10 9 0 16 -4 16
-10z m-2506 -89 c68 -69 78 -82 66 -95 -7 -9 -17 -16 -22 -16 -23 0 -158 156
-158 183 0 25 46 -4 114 -72z m-212 37 c-7 -7 -12 -8 -12 -2 0 14 12 26 19 19
2 -3 -1 -11 -7 -17z m2688 13 c0 -13 -29 -35 -37 -28 -7 8 15 37 28 37 5 0 9
-4 9 -9z m-1690 -167 c58 -59 98 -103 91 -99 -8 5 -5 -6 8 -24 17 -23 27 -29
34 -22 15 15 24 14 24 -4 0 -15 -53 -66 -119 -114 l-33 -25 23 25 c12 14 22
32 22 39 0 8 -55 67 -122 132 l-122 118 39 40 c21 22 42 40 45 40 3 0 53 -48
110 -106z m1620 20 c0 -2 -4 -5 -10 -9 -13 -8 -92 73 -84 86 4 7 24 -7 50 -32
24 -24 44 -44 44 -45z m-2207 30 c-32 -43 -142 -134 -160 -134 -7 0 -13 10
-13 23 0 29 100 130 121 122 8 -3 23 1 34 9 37 28 47 17 18 -20z m-573 -23 c0
-12 -95 -91 -109 -91 -19 0 -12 16 27 58 35 38 82 57 82 33z m39 -17 c-14 -17
-42 -19 -36 -1 2 6 10 11 16 10 6 -2 11 2 11 8 0 5 5 7 10 4 8 -5 7 -11 -1
-21z m1791 6 c-8 -5 -37 -9 -65 -8 l-50 1 50 7 c82 11 82 11 65 0z m-1233 -52
c-33 -46 -44 -57 -69 -67 -21 -8 -28 -7 -33 6 -4 11 10 32 42 65 41 42 49 46
62 34 12 -13 12 -18 -2 -38z m2033 -112 c-14 -14 -106 77 -95 94 5 8 23 -3 56
-36 33 -33 46 -51 39 -58z m-2542 -9 c76 -77 81 -84 68 -102 -14 -20 -14 -20
-38 0 -93 78 -138 133 -138 170 0 30 27 13 108 -68z m2297 33 c-10 -11 -20
-18 -23 -15 -3 3 3 14 13 25 10 11 20 18 23 15 3 -3 -3 -14 -13 -25z m-1355
-73 c40 -43 70 -80 68 -83 -6 -6 -94 81 -138 136 -52 65 -12 35 70 -53z m320
14 c0 -10 9 -26 20 -36 11 -10 20 -26 20 -35 0 -13 147 -162 239 -241 19 -17
21 -23 10 -30 -23 -14 0 -23 27 -10 15 6 29 9 32 6 8 -8 -59 -75 -75 -75 -8 0
-16 -7 -19 -15 -8 -21 -24 -19 -24 3 0 10 -61 85 -136 165 l-136 147 31 39
c19 24 27 42 21 46 -14 9 -28 -2 -46 -36 -10 -21 -20 -29 -31 -25 -9 4 -33 -5
-55 -19 -54 -36 -44 -17 37 68 70 73 85 82 85 48z m-425 -111 l129 -130 -27
-28 c-15 -15 -27 -32 -27 -38 1 -5 14 6 30 25 29 34 30 34 50 16 11 -10 20
-23 20 -29 0 -6 23 -34 52 -63 57 -58 59 -71 3 -22 -19 17 -35 27 -35 23 0
-12 122 -134 134 -134 5 0 1 9 -9 20 -35 39 -8 29 31 -11 21 -22 31 -37 22
-34 -31 12 -19 -9 14 -25 41 -20 57 -45 39 -62 -11 -10 -14 -10 -18 0 -7 19
-35 14 -65 -11 l-28 -24 24 -23 c15 -13 30 -19 38 -15 10 6 10 5 1 -5 -10 -11
-18 -10 -45 1 -18 7 -43 12 -55 11 -13 -2 -23 1 -23 7 0 6 -8 11 -19 11 -17 0
-18 3 -6 38 11 32 11 37 -1 40 -12 3 -13 7 -3 18 9 11 -1 28 -54 87 l-66 74
34 33 c38 37 43 50 21 50 -8 0 -24 -13 -36 -30 -12 -17 -30 -30 -42 -30 -12 0
-37 -12 -56 -26 l-34 -27 12 24 c7 13 22 35 34 48 22 25 22 25 -31 4 -16 -6
-16 -5 -5 9 18 22 7 42 -58 102 -28 26 -50 49 -48 51 2 1 13 8 26 14 12 6 22
18 22 26 0 22 -17 18 -23 -5 -10 -37 -51 -25 -101 31 -25 28 -46 55 -46 59 0
10 77 80 88 80 4 0 66 -58 137 -130z m-595 96 c0 -8 -17 -27 -37 -42 -40 -30
-47 -36 -142 -128 -33 -33 -63 -57 -66 -55 -3 3 5 16 18 30 12 13 21 27 19 31
-6 21 28 77 50 80 13 2 22 9 20 17 -4 20 28 51 53 51 11 0 30 7 41 15 25 19
44 19 44 1z m0 -81 c10 -12 9 -19 -3 -37 -29 -43 -76 -93 -77 -81 0 6 -8 9
-19 6 -41 -10 -32 20 20 73 29 30 56 54 60 54 4 0 12 -7 19 -15z m820 -32 c0
-17 -8 -16 -26 1 -22 22 -18 38 6 24 11 -7 20 -18 20 -25z m30 -35 c0 -19 -2
-20 -10 -8 -13 19 -13 30 0 30 6 0 10 -10 10 -22z m-316 -228 c9 0 16 -7 16
-15 0 -8 -4 -15 -10 -15 -14 0 -173 159 -199 200 -13 19 22 -11 77 -67 55 -57
107 -103 116 -103z m496 79 c5 23 8 21 55 -33 37 -44 46 -59 35 -66 -22 -14
123 -158 163 -162 37 -4 80 -54 58 -67 -10 -7 27 -51 148 -175 88 -91 161
-171 161 -178 0 -7 -28 16 -63 50 -35 34 -66 59 -70 56 -4 -4 -2 -13 4 -20 14
-17 3 -35 -17 -27 -11 4 -15 0 -12 -13 4 -24 -30 -30 -57 -10 -20 15 -20 15 5
40 45 45 47 51 38 76 -9 25 -146 170 -160 170 -4 0 -6 -16 -5 -37 2 -34 -1
-37 -32 -45 -28 -8 -36 -6 -43 6 -5 9 -13 14 -17 12 -4 -3 -21 9 -37 26 -22
24 -24 28 -8 20 18 -9 25 -7 46 16 51 55 49 60 -103 213 -96 96 -138 133 -134
116 8 -32 -6 -40 -33 -21 -18 12 -20 19 -12 40 11 28 3 49 -29 78 -12 11 -21
24 -21 29 0 6 30 -19 67 -54 64 -61 67 -63 73 -40z m-724 -74 c65 -63 113
-115 107 -115 -5 0 -23 11 -39 25 -41 35 -44 21 -4 -20 26 -27 36 -32 47 -23
9 7 17 8 24 1 12 -12 -55 -90 -100 -116 l-31 -18 11 25 c10 22 8 30 -20 65
-18 22 -53 56 -79 75 -46 33 -132 126 -132 142 0 16 64 74 81 74 10 0 70 -52
135 -115z m651 -19 c-5 -12 -14 -15 -34 -10 -45 10 -51 23 -23 44 24 19 25 19
44 0 11 -10 16 -25 13 -34z m-377 -36 c0 -11 -4 -20 -9 -20 -11 0 -22 26 -14
34 12 12 23 5 23 -14z m150 -162 c0 -4 -7 -5 -15 -2 -11 5 -15 -1 -15 -20 0
-16 -6 -26 -15 -26 -8 0 -15 -6 -15 -14 0 -16 -34 -31 -50 -21 -16 10 -12 17
26 58 l35 37 -20 34 c-12 19 -28 39 -36 46 -8 7 -15 17 -15 23 0 6 27 -15 60
-48 33 -33 60 -63 60 -67z m767 72 c3 -11 10 -20 15 -20 5 0 6 6 2 13 -4 6 3
2 15 -10 11 -12 21 -26 21 -32 0 -5 4 -11 10 -13 14 -5 248 -237 270 -268 l20
-28 -31 -41 c-16 -23 -34 -39 -40 -35 -5 3 -9 10 -7 15 2 6 -79 92 -179 192
l-183 181 32 33 c37 38 48 41 55 13z m-1009 -35 c10 -22 9 -27 -6 -32 -22 -9
-51 -44 -52 -62 0 -9 -7 -11 -21 -8 -12 3 -36 -4 -56 -16 -30 -17 -34 -18 -27
-4 16 28 128 146 140 146 6 1 16 -10 22 -24z m612 -89 c0 -11 16 -37 36 -57
l36 -37 -21 -21 c-12 -12 -21 -25 -21 -30 0 -14 -41 -41 -52 -35 -4 3 -6 10
-2 15 3 6 -8 28 -26 50 -30 38 -31 40 -16 71 9 17 16 49 16 71 l0 40 25 -23
c14 -13 25 -33 25 -44z m-462 -107 c-26 -15 -33 -71 -13 -110 13 -25 -11 -6
-91 73 l-107 106 39 46 39 45 75 -75 c63 -64 72 -77 58 -85z m-467 -11 c61
-68 120 -141 130 -163 23 -50 24 -132 3 -185 -9 -22 -14 -47 -11 -55 4 -8 1
-17 -5 -21 -7 -5 -8 -2 -3 6 5 9 4 11 -3 6 -7 -4 -12 -13 -12 -19 0 -7 -10
-25 -21 -42 -12 -16 -18 -22 -15 -11 6 17 2 18 -46 11 -93 -13 -150 -10 -193
13 -41 21 -201 137 -211 153 -16 26 30 1 96 -52 141 -115 224 -134 325 -75 56
33 87 92 92 175 2 42 -2 61 -19 90 -30 48 -26 43 -124 154 -99 111 -119 137
-105 137 6 0 60 -55 122 -122z m659 103 c0 -5 -7 -14 -15 -21 -16 -14 -18 -10
-9 14 6 17 24 22 24 7z m101 -106 c11 -4 19 -14 18 -23 -3 -37 2 -52 22 -62
16 -9 26 -8 44 4 36 23 43 0 10 -34 -23 -24 -25 -31 -16 -49 7 -12 18 -21 25
-21 7 0 21 -9 30 -19 15 -16 15 -22 5 -40 l-13 -20 -36 21 c-19 12 -46 32 -61
45 -29 27 -46 29 -76 8 -18 -12 -23 -13 -32 -1 -7 8 -9 25 -6 38 5 19 1 27
-19 36 -17 7 -26 20 -26 34 0 13 -3 34 -7 47 -5 20 -3 23 12 18 15 -6 16 -3
11 27 -7 38 -1 45 48 56 29 6 32 4 39 -27 5 -18 17 -35 28 -38z m11 53 c-7 -7
-12 -8 -12 -2 0 14 12 26 19 19 2 -3 -1 -11 -7 -17z m306 -71 c0 -7 3 -23 7
-37 5 -19 3 -18 -11 8 -20 38 -36 40 -62 7 -20 -25 -29 -105 -11 -105 5 0 9
-5 9 -11 0 -5 -5 -7 -12 -3 -7 5 -25 7 -41 6 -27 -2 -28 -1 -21 35 9 50 55
123 76 123 20 0 24 15 8 25 -5 3 -10 11 -10 18 0 14 66 -50 68 -66z m-479 6
c-14 -26 -14 -26 -17 -4 -5 34 6 57 20 43 9 -9 8 -18 -3 -39z m-94 -34 c11
-17 -1 -21 -15 -4 -8 9 -8 15 -2 15 6 0 14 -5 17 -11z m1225 -40 c0 -11 -7
-19 -16 -19 -11 0 -14 5 -10 16 3 9 6 20 6 25 0 6 5 7 10 4 6 -3 10 -15 10
-26z m-344 -254 c12 -20 13 -30 5 -33 -14 -5 -15 -32 -1 -32 6 0 10 5 10 10 0
6 5 10 10 10 18 0 11 -20 -21 -60 -18 -22 -36 -37 -41 -34 -4 3 -6 9 -3 13 2
5 -54 66 -126 137 -104 103 -129 133 -124 149 4 11 8 30 10 41 1 12 8 30 14
41 5 11 9 22 8 25 -9 20 247 -244 259 -267z m-766 174 c4 -8 12 -24 18 -36 28
-54 -3 -59 -43 -8 -22 29 -24 39 -14 51 14 17 30 14 39 -7z m-155 1 c3 -5 -5
-29 -19 -53 -32 -54 -32 -70 -3 -90 12 -8 19 -18 14 -23 -4 -4 -21 5 -37 21
-25 24 -30 26 -36 12 -3 -9 3 -29 16 -47 13 -19 17 -30 9 -30 -7 0 -9 -3 -6
-7 4 -3 -14 -29 -41 -57 -26 -28 -76 -83 -112 -121 -35 -39 -60 -63 -55 -55 4
8 39 49 77 91 l68 77 -25 16 c-26 17 -34 9 -13 -12 10 -10 -8 -32 -84 -103
-54 -49 -170 -167 -260 -262 -89 -95 -167 -174 -172 -176 -6 -2 1 10 17 26 15
16 27 33 27 38 0 5 -16 -8 -35 -29 -19 -21 -32 -42 -29 -47 3 -5 -2 -6 -10 -3
-20 8 -20 5 -1 -34 12 -23 13 -40 6 -73 -6 -25 -6 -50 -1 -59 13 -24 99 -55
113 -41 13 13 28 15 26 4 -4 -22 3 -24 21 -8 17 15 22 16 37 4 17 -13 17 -12
4 4 -10 12 -11 21 -4 25 5 4 12 12 14 19 2 7 68 81 145 165 329 357 564 622
564 637 -1 11 -8 6 -23 -14 -12 -16 -32 -41 -45 -55 l-23 -25 15 32 c18 37 21
63 6 63 -6 0 -4 13 5 30 15 30 45 33 45 4 0 -10 7 -13 26 -8 l26 7 -16 -31
c-30 -58 -11 -100 39 -88 14 4 25 2 25 -4 0 -5 -3 -9 -7 -9 -20 3 -27 -2 -14
-10 10 -7 6 -17 -21 -46 l-35 -38 -28 31 c-16 18 -34 32 -42 32 -20 0 -16 -28
7 -40 11 -6 25 -20 31 -32 11 -20 0 -33 -138 -167 -82 -81 -198 -199 -258
-263 -59 -65 -114 -118 -122 -118 -8 0 -38 -26 -67 -57 -44 -47 -52 -61 -43
-72 10 -12 9 -13 -7 -4 -16 9 -24 6 -44 -19 -36 -42 -78 -60 -144 -61 -66 0
-77 6 -60 33 12 21 16 60 6 60 -3 0 -15 -11 -26 -25 -11 -14 -27 -25 -37 -25
-23 0 -68 42 -81 74 -14 37 -15 158 -2 182 14 26 59 57 72 49 6 -3 7 1 4 9 -3
9 -1 16 5 16 6 0 10 4 8 9 -1 4 73 89 164 187 247 267 251 272 244 284 -3 5 0
10 7 10 14 0 155 137 184 178 8 12 13 26 10 31 -4 5 4 7 16 4 17 -3 19 -2 9 5
-9 7 -10 12 -2 16 6 4 11 16 11 26 0 10 8 24 18 29 22 13 79 14 87 1z m1085
-115 c-7 -8 -20 -15 -29 -15 -13 1 -13 3 3 15 26 19 42 19 26 0z m-850 -9 c0
-3 -4 -8 -10 -11 -5 -3 -10 -1 -10 4 0 6 5 11 10 11 6 0 10 -2 10 -4z m44 -78
c-9 -18 -19 -28 -21 -21 -4 12 28 65 35 58 2 -2 -4 -18 -14 -37z m730 6 c9
-23 8 -24 -13 -24 -14 0 -18 5 -14 20 6 24 19 26 27 4z m-470 -154 c119 -115
160 -175 143 -206 -28 -49 -77 -81 -60 -39 3 9 -1 15 -9 15 -8 0 -72 58 -142
130 -124 125 -128 130 -114 152 8 13 18 35 22 51 9 38 21 30 160 -103z m90 94
c11 -28 7 -36 -15 -29 -18 6 -20 4 -14 -14 7 -24 -14 -37 -41 -27 -14 5 -12 9
9 26 14 11 29 29 32 40 8 24 21 26 29 4z m-564 -77 c0 -2 -19 -21 -42 -42
l-43 -40 40 43 c36 39 45 47 45 39z m-360 -150 c0 -2 -17 -19 -37 -38 l-38
-34 34 38 c33 34 41 42 41 34z m1045 -17 c0 -7 -6 -15 -12 -17 -8 -3 -13 4
-13 17 0 13 5 20 13 18 6 -3 12 -11 12 -18z m-2683 -97 c31 -29 35 -43 15 -43
-8 0 -120 -104 -251 -232 -169 -166 -235 -236 -231 -248 4 -14 0 -16 -26 -12
-24 4 -37 -2 -63 -27 -38 -37 -59 -34 -82 11 -15 28 -14 30 19 63 24 24 44 35
64 35 21 0 41 12 73 45 25 25 50 43 57 41 7 -3 10 1 7 7 -4 12 366 387 382
387 4 0 21 -12 36 -27z m1528 -6 c0 -2 -19 -21 -42 -42 l-43 -40 40 43 c36 39
45 47 45 39z m-158 -174 c-27 -32 -60 -67 -73 -78 -23 -19 11 22 80 98 54 57
49 44 -7 -20z m-1398 -92 c-34 -69 -64 -166 -64 -208 0 -13 -5 -23 -10 -23 -6
0 -9 -22 -7 -55 2 -30 0 -55 -4 -55 -11 0 -20 46 -13 65 4 10 1 21 -7 26 -9 5
-14 26 -14 61 1 96 12 124 77 193 33 36 64 65 68 65 5 0 -7 -31 -26 -69z m76
39 c0 -19 -10 -40 -30 -60 -16 -17 -30 -38 -31 -48 0 -9 -2 -37 -4 -62 -12
-152 9 -239 85 -354 140 -208 360 -306 565 -250 33 9 72 18 87 19 59 6 135 62
291 214 86 85 158 152 160 150 31 -53 33 -48 -34 -115 -35 -35 -59 -64 -54
-64 5 0 -4 -13 -20 -30 -15 -16 -31 -29 -34 -28 -19 2 -31 -4 -31 -15 0 -8 -9
-22 -20 -32 -11 -10 -20 -14 -20 -10 0 5 -12 -3 -27 -17 -43 -40 -168 -117
-236 -146 -50 -20 -84 -26 -172 -30 -104 -4 -116 -2 -210 29 -55 18 -117 43
-138 57 -22 13 -41 21 -44 18 -10 -10 -59 23 -96 63 -60 67 -106 143 -122 204
-19 74 -19 77 6 48 27 -33 31 -23 13 29 -27 77 -6 262 43 370 13 28 60 89 71
90 1 0 2 -13 2 -30z m1450 -54 c0 -2 -8 -10 -17 -17 -16 -13 -17 -12 -4 4 13
16 21 21 21 13z m47 -134 c-20 -20 -37 -34 -37 -30 0 13 62 79 68 73 3 -3 -11
-22 -31 -43z m-394 -107 c23 -32 17 -32 -13 0 -13 14 -19 25 -14 25 5 0 17
-12 27 -25z"></path>
<path d="M5682 6339 c-29 -11 -26 -43 5 -47 15 -2 23 4 28 18 9 29 -4 40 -33
29z"></path>
<path d="M5672 6229 c2 -6 8 -10 13 -10 5 0 11 4 13 10 2 6 -4 11 -13 11 -9 0
-15 -5 -13 -11z"></path>
<path d="M5693 6005 c-7 -20 2 -29 21 -22 9 4 13 13 10 22 -8 19 -23 19 -31 0z"></path>
<path d="M5362 5936 c-35 -51 -37 -56 -22 -56 14 0 63 77 58 91 -2 7 -19 -9
-36 -35z"></path>
<path d="M5096 5584 c-65 -75 -115 -138 -113 -141 3 -2 51 48 108 111 108 123
133 155 127 161 -2 2 -57 -57 -122 -131z"></path>
<path d="M4935 5400 c-10 -11 -16 -22 -13 -25 3 -3 13 4 23 15 10 11 16 22 13
25 -3 3 -13 -4 -23 -15z"></path>
<path d="M3765 4120 c-3 -5 -1 -10 4 -10 6 0 11 5 11 10 0 6 -2 10 -4 10 -3 0
-8 -4 -11 -10z"></path>
<path d="M5190 5240 c0 -5 7 -10 16 -10 8 0 12 5 9 10 -3 6 -10 10 -16 10 -5
0 -9 -4 -9 -10z"></path>
<path d="M5430 4300 c0 -5 7 -10 15 -10 8 0 15 5 15 10 0 6 -7 10 -15 10 -8 0
-15 -4 -15 -10z"></path>
<path d="M5290 4215 c-8 -9 -8 -15 -2 -15 12 0 26 19 19 26 -2 2 -10 -2 -17
-11z"></path>
<path d="M4905 3798 l-40 -43 43 40 c39 36 47 45 39 45 -2 0 -21 -19 -42 -42z"></path>
<path d="M4345 3160 c-16 -16 -26 -32 -24 -35 3 -3 18 9 34 25 16 16 26 32 24
35 -3 3 -18 -9 -34 -25z"></path>
<path d="M4160 3005 c-24 -25 -42 -45 -39 -45 3 0 25 20 49 45 24 25 42 45 39
45 -3 0 -25 -20 -49 -45z"></path>
<path d="M4195 3000 c-10 -11 -16 -22 -13 -25 3 -3 13 4 23 15 10 11 16 22 13
25 -3 3 -13 -4 -23 -15z"></path>
<path d="M5035 4230 c-3 -6 1 -7 9 -4 18 7 21 14 7 14 -6 0 -13 -4 -16 -10z"></path>
<path d="M3240 2960 c24 -34 39 -45 47 -36 7 7 -46 66 -60 66 -4 0 1 -13 13
-30z"></path>
<path d="M3475 2641 c-3 -5 -1 -12 5 -16 5 -3 10 1 10 9 0 18 -6 21 -15 7z"></path>
<path d="M3482 2581 c-28 -45 -31 -61 -12 -61 4 0 13 13 20 29 6 16 20 37 31
47 17 16 18 34 0 34 -4 0 -22 -22 -39 -49z"></path>
<path d="M4102 2563 c4 -13 258 -276 258 -265 0 4 -59 68 -131 142 -71 74
-129 130 -127 123z"></path>
<path d="M4330 2374 c0 -6 14 -23 30 -39 17 -16 30 -24 30 -19 0 6 -13 23 -30
39 -16 16 -30 24 -30 19z"></path>
<path d="M4410 2280 c0 -5 -7 -10 -15 -10 -16 0 -20 -16 -6 -24 5 -3 16 5 25
19 9 14 12 25 6 25 -5 0 -10 -4 -10 -10z"></path>
<path d="M3110 2524 c0 -5 23 -32 50 -59 28 -27 50 -45 50 -39 0 5 -22 32 -50
59 -27 27 -50 45 -50 39z"></path>
<path d="M3627 2303 c-4 -3 -7 -11 -7 -17 0 -6 5 -5 12 2 6 6 9 14 7 17 -3 3
-9 2 -12 -2z"></path>
<path d="M3908 2291 c6 -8 12 -24 13 -35 0 -21 219 -260 219 -240 0 6 -34 50
-75 97 -41 47 -75 89 -75 94 0 5 -21 29 -47 53 -27 25 -42 38 -35 31z"></path>
<path d="M4000 2103 c58 -60 106 -110 107 -112 2 -2 3 0 3 6 0 14 -189 213
-203 213 -6 0 36 -48 93 -107z"></path>
<path d="M4130 1959 c0 -5 5 -7 10 -4 6 3 10 8 10 11 0 2 -4 4 -10 4 -5 0 -10
-5 -10 -11z"></path>
<path d="M3157 2186 c-4 -10 -1 -13 9 -9 15 6 19 23 5 23 -5 0 -11 -7 -14 -14z"></path>
<path d="M2410 1369 c-7 -11 -10 -23 -7 -25 2 -2 9 7 15 21 14 30 7 33 -8 4z"></path>
<path d="M2506 1321 c-4 -6 -3 -18 2 -27 8 -15 10 -14 16 2 8 20 -8 42 -18 25z"></path>
<path d="M2453 1193 c-18 -7 -16 -33 2 -33 8 0 15 6 15 14 0 8 6 17 13 19 8 4
7 5 -3 5 -8 0 -21 -2 -27 -5z"></path>
<path d="M3661 1940 c17 -35 208 -228 209 -211 0 8 -50 64 -111 125 -61 61
-105 100 -98 86z"></path>
<path d="M3688 1855 c27 -40 162 -172 162 -160 0 6 -41 51 -91 100 -51 50 -83
77 -71 60z"></path>
<path d="M3890 1689 c0 -5 5 -7 10 -4 6 3 10 8 10 11 0 2 -4 4 -10 4 -5 0 -10
-5 -10 -11z"></path>
<path d="M750 1119 c0 -11 5 -17 10 -14 6 3 10 13 10 21 0 8 -4 14 -10 14 -5
0 -10 -9 -10 -21z"></path>
<path d="M2349 793 l-24 -28 28 24 c15 14 27 26 27 28 0 8 -8 1 -31 -24z"></path>
<path d="M1350 713 c0 -12 38 -48 45 -41 3 2 -6 15 -20 28 -14 13 -25 19 -25
13z"></path>
</g>
</svg>